<svg width="64" height="64" viewBox="0 0 64 64" fill="none" xmlns="http://www.w3.org/2000/svg">
  <rect width="64" height="64" rx="16" fill="#0F172A"/>
  <path d="M16 18.5C16 16.567 17.567 15 19.5 15H44.5C46.433 15 48 16.567 48 18.5V18.5C48 20.433 46.433 22 44.5 22H19.5C17.567 22 16 20.433 16 18.5V18.5Z" fill="#00C9A7"/>
  <path d="M22 30.5C22 28.567 23.567 27 25.5 27H38.5C40.433 27 42 28.567 42 30.5V30.5C42 32.433 40.433 34 38.5 34H25.5C23.567 34 22 32.433 22 30.5V30.5Z" fill="#7C3AED"/>
  <path d="M20 43C20 41.067 21.567 39.5 23.5 39.5H40.5C42.433 39.5 44 41.067 44 43V43C44 44.933 42.433 46.5 40.5 46.5H23.5C21.567 46.5 20 44.933 20 43V43Z" fill="#38BDF8"/>
</svg>
